<?xml version="1.0" encoding="utf-8"?>
<!-- Generator: Adobe Illustrator 21.0.0, SVG Export Plug-In . SVG Version: 6.00 Build 0)  -->
<svg version="1.1" xmlns="http://www.w3.org/2000/svg" xmlns:xlink="http://www.w3.org/1999/xlink" x="0px" y="0px"
	 viewBox="0 0 500 500" style="enable-background:new 0 0 500 500;" xml:space="preserve">
<style type="text/css">
	.st0{fill:#603913;stroke:#3C2415;stroke-width:0.7822;stroke-miterlimit:10;}
	.st1{fill:#A97C50;stroke:#C49A6C;stroke-width:0.5087;stroke-miterlimit:10;}
	.st2{fill:#5C3400;stroke:#3C2415;stroke-width:0.7822;stroke-miterlimit:10;}
	.st3{fill:#603913;stroke:#C49A6C;stroke-width:0.7824;stroke-miterlimit:10;}
	.st4{fill:#3C2415;stroke:#C49A6C;stroke-width:0.7824;stroke-miterlimit:10;}
	.st5{clip-path:url(#SVGID_2_);}
	.st6{fill:#A97C50;stroke:#C49A6C;stroke-width:0.7824;stroke-miterlimit:10;}
	.st7{fill:#603913;stroke:#C49A6C;stroke-width:0.4899;stroke-miterlimit:10;}
	.st8{display:none;fill:#603913;stroke:#603913;stroke-width:0.4479;stroke-miterlimit:10;}
	.st9{fill:#C49A6C;stroke:#3C2415;stroke-miterlimit:10;}
	.st10{fill:#C49A6C;stroke:#3C2415;stroke-width:1.2246;stroke-miterlimit:10;}
	.st11{fill:#C49A6C;stroke:#3C2415;stroke-width:1.2238;stroke-miterlimit:10;}
	.st12{fill:#5AA37F;stroke:#000000;stroke-width:0.8964;stroke-miterlimit:10;}
	.st13{fill:#5AA37F;}
	.st14{fill:none;stroke:#000000;stroke-width:0.8964;stroke-miterlimit:10;}
	.st15{fill:none;stroke:#000000;stroke-width:0.5811;stroke-miterlimit:10;}
	.st16{stroke:#FFFFFF;stroke-width:0.7242;stroke-miterlimit:10;}
	.st17{fill:#009AD0;stroke:#000000;stroke-width:0.8964;stroke-miterlimit:10;}
	.st18{fill:#009AD0;}
	.st19{fill:#009AD0;stroke:#000000;stroke-width:0.8359;stroke-miterlimit:10;}
	.st20{fill:#5AA37F;stroke:#000000;stroke-width:0.8359;stroke-miterlimit:10;}
	.st21{fill:#009AD0;stroke:#000000;stroke-width:0.9202;stroke-miterlimit:10;}
	.st22{stroke:#FFFFFF;stroke-width:0.5669;stroke-miterlimit:10;}
	.st23{fill:#603913;stroke:#C49A6C;stroke-width:3.1573;stroke-miterlimit:10;}
	.st24{fill:#C49A6C;stroke:#3C2415;stroke-width:1.4436;stroke-miterlimit:10;}
	.st25{clip-path:url(#SVGID_4_);}
	.st26{fill:none;stroke:#C49A6C;stroke-width:1.5787;stroke-miterlimit:10;}
	.st27{fill:#FAA532;stroke:#000000;stroke-width:1.1138;stroke-miterlimit:10;}
	.st28{stroke:#000000;stroke-width:1.5787;stroke-miterlimit:10;}
	.st29{fill:#F17A2D;stroke:#000000;stroke-width:1.1138;stroke-miterlimit:10;}
	.st30{fill:#007E42;stroke:#000000;stroke-width:1.1138;stroke-miterlimit:10;}
	.st31{fill:#009AD0;stroke:#000000;stroke-width:1.2338;stroke-miterlimit:10;}
	.st32{fill:#009AD0;stroke:#000000;stroke-width:1.2476;stroke-miterlimit:10;}
	.st33{fill:none;stroke:#000000;stroke-width:1.0788;stroke-miterlimit:10;}
	.st34{stroke:#FFFFFF;stroke-width:1.1138;stroke-miterlimit:10;}
</style>
<g id="Layer_1">
</g>
<g id="Layer_3">
</g>
<g id="Layer_4">
	<g>
		<polygon class="st23" points="9,250.5 250.5,409.6 491,250.5 250.5,90.4 		"/>
		<g>
			<g>
				<path class="st24" d="M62.9,239.5c0.7-0.9,1.3-1.7,2-2.6c1.9,1.5,3.9,3.1,5.8,4.6c-0.8,1-1.5,1.9-2.3,2.9c-3-1.8-5-0.9-6.6,1.4
					c-1.2,1.7-1.6,4.4,1.5,6.5c3.3,2.3,5.7,1.8,7.4-0.5c1.6-2.2,1.5-4.7-0.8-6.7c0.9-0.8,1.7-1.7,2.6-2.5c3,2.5,3.9,7,0.6,11.5
					c-3.5,4.8-8.6,6.6-13.2,3.6c-4.2-2.8-4.4-8.9-1-13.6c1.8-2.5,3.6-3.3,5.2-3.5C63.8,240.2,63.3,239.9,62.9,239.5z"/>
				<path class="st24" d="M87.7,235.7c-0.8-0.8-1.7-1.5-2.5-2.3c0.5-0.6,1.1-1.2,1.7-1.8c-0.8-0.8-1.7-1.5-2.5-2.3
					c-1.4,1.5-2.8,3.1-4.2,4.7c0.8,0.7,1.7,1.5,2.5,2.2c0.6-0.6,1.1-1.3,1.7-1.9c0.9,0.8,1.7,1.5,2.6,2.3c-2.3,2.6-4.6,5.3-6.9,8.1
					c-0.9-0.7-1.8-1.4-2.7-2.2c0.6-0.7,1.1-1.4,1.7-2.1c-2.5-2.1-5-4.2-7.5-6.3c-0.6,0.7-1.2,1.4-1.8,2.2c-0.9-0.7-1.8-1.5-2.7-2.2
					c2.4-3,4.9-5.9,7.4-8.7c0.9,0.8,1.7,1.5,2.6,2.3c-0.6,0.7-1.2,1.3-1.7,2c0.7,0.7,1.5,1.3,2.2,2c1.4-1.6,2.8-3.2,4.2-4.7
					c-0.7-0.7-1.4-1.3-2.2-2c-0.6,0.6-1.2,1.3-1.7,1.9c-0.9-0.8-1.7-1.6-2.6-2.3c2.5-2.8,5.1-5.5,7.7-8.1c0.8,0.8,1.6,1.6,2.4,2.4
					c-0.7,0.7-1.3,1.4-2,2c2.3,2.3,4.7,4.5,7,6.8c0.6-0.7,1.3-1.3,1.9-1.9c0.8,0.8,1.6,1.6,2.4,2.4C92.4,230.6,90,233.1,87.7,235.7z
					"/>
				<path class="st24" d="M91,220.1c-3.5-3.5-2.9-9.5,1.7-13.6c4.4-4,10.3-4.3,13.6-0.1c2.9,3.6,2.7,9-1.9,13.1
					C99.7,223.8,94.2,223.4,91,220.1z M95.3,216c2.4,2.6,4.9,2.8,6.9,1.1c1.9-1.7,2.1-4.1-0.3-6.9c-2.5-2.9-5.2-2.7-6.9-1.2
					C93.1,210.7,92.7,213.3,95.3,216z"/>
				<path class="st24" d="M115.4,189.1c0.8-0.6,1.7-1.2,2.5-1.8c1.4,2.1,2.8,4.1,4.2,6.2c-1,0.6-1.9,1.3-2.9,2
					c-2.3-2.6-4.4-2.4-6.5-0.9c-1.5,1.1-2.6,3.5-0.3,6.5c2.5,3.2,4.8,3.5,7,1.9c2.1-1.5,2.6-3.8,1-6.5c1-0.5,2-1,3.1-1.5
					c2.1,3.3,1.8,7.7-2.4,10.8c-4.5,3.3-9.6,3.2-13.1-1.1c-3.2-3.9-1.8-9.6,2.7-12.8c2.3-1.7,4.2-1.9,5.7-1.5
					C116,190.1,115.7,189.6,115.4,189.1z"/>
				<path class="st24" d="M125,192.6c-2.8-4.1-1.1-9.7,4-12.8c4.9-3,10.7-2.1,13.1,2.6c2.2,4.1,1.1,9.3-4.1,12.4
					C132.7,197.9,127.5,196.5,125,192.6z M129.8,189.6c1.9,3,4.3,3.7,6.4,2.4c2.1-1.3,2.7-3.6,0.9-6.8c-1.9-3.3-4.6-3.6-6.5-2.5
					C128.6,183.9,127.8,186.4,129.8,189.6z"/>
				<path class="st24" d="M148.2,188.6c-0.5-1-1.1-2-1.6-3c0.7-0.4,1.5-0.8,2.2-1.2c-1.5-2.9-3-5.8-4.5-8.7
					c-0.8,0.4-1.6,0.8-2.3,1.2c-0.5-1-1.1-2-1.6-3.1c3.3-1.7,6.5-3.3,9.9-4.9c0.5,1,1,2.1,1.5,3.1c-0.9,0.4-1.7,0.8-2.6,1.2
					c1.4,2.9,2.8,5.9,4.3,8.8c1.8-0.8,3.5-1.7,5.3-2.5c-0.6-1.3-1.2-2.6-1.7-3.9c1.3-0.6,2.6-1.1,3.8-1.7c1,2.4,2,4.7,3,7.1
					C158.6,183.4,153.4,185.9,148.2,188.6z"/>
				<path class="st24" d="M175.6,176.5c-0.4-1.1-0.8-2.1-1.2-3.2c0.6-0.2,1.3-0.5,1.9-0.7c-0.2-0.2-0.4-0.5-0.6-0.7
					c-1.6,0.6-3.2,1.2-4.8,1.8c0,0.3,0,0.6,0,0.9c0.5-0.2,1.1-0.4,1.6-0.6c0.4,1.1,0.8,2.1,1.2,3.2c-2.5,0.9-4.9,1.9-7.3,2.9
					c-0.4-1.1-0.9-2.1-1.3-3.2c0.7-0.3,1.4-0.6,2.2-0.9c0-4.7,0.1-9.5,0.3-14.3c1.5-0.6,3-1.1,4.5-1.6c3.2,3.5,6.4,7.1,9.4,10.8
					c0.8-0.2,1.5-0.5,2.3-0.7c0.3,1.1,0.7,2.2,1,3.3C181.7,174.4,178.7,175.4,175.6,176.5z M170.8,166c0,1.4,0,2.8,0,4.2
					c0.9-0.3,1.8-0.7,2.7-1C172.6,168.1,171.7,167.1,170.8,166z"/>
				<path class="st24" d="M198.1,160c-0.3-1.2-0.6-2.4-0.9-3.6c-0.8,0.2-1.5,0.4-2.3,0.6c0.8,3.2,1.6,6.3,2.4,9.5
					c0.8-0.2,1.7-0.4,2.5-0.6c0.3,1.1,0.5,2.2,0.8,3.3c-3.3,0.8-6.5,1.6-9.8,2.5c-0.3-1.1-0.6-2.2-0.9-3.3c0.8-0.2,1.7-0.5,2.5-0.7
					c-0.9-3.1-1.7-6.3-2.6-9.4c-0.8,0.2-1.6,0.4-2.4,0.6c0.3,1.2,0.7,2.4,1,3.6c-1.3,0.4-2.7,0.8-4,1.2c-0.7-2.3-1.4-4.6-2.1-6.9
					c6.1-1.8,12.2-3.4,18.3-4.7c0.5,2.3,1,4.7,1.5,7C200.8,159.3,199.5,159.7,198.1,160z"/>
				<path class="st24" d="M207,167.7c-0.2-1.1-0.5-2.2-0.7-3.4c0.8-0.2,1.6-0.3,2.4-0.5c-0.6-3.2-1.2-6.4-1.9-9.6
					c-0.8,0.2-1.7,0.3-2.5,0.5c-0.2-1.1-0.5-2.3-0.7-3.4c6-1.2,12-2.2,18.1-3c0.3,2.3,0.6,4.7,0.9,7c-1.4,0.2-2.8,0.4-4.1,0.6
					c-0.2-1.2-0.3-2.4-0.5-3.6c-2,0.3-3.9,0.6-5.9,0.9c0.2,1,0.4,2.1,0.5,3.1c0.4-0.1,0.8-0.1,1.3-0.2c-0.1-0.7-0.2-1.3-0.3-2
					c1.2-0.2,2.4-0.4,3.6-0.6c0.4,2.4,0.7,4.8,1.1,7.2c-1.2,0.2-2.3,0.4-3.5,0.5c-0.1-0.7-0.2-1.3-0.3-2c-0.4,0.1-0.8,0.1-1.2,0.2
					c0.2,1.1,0.4,2.2,0.6,3.3c2-0.3,3.9-0.6,5.9-0.9c-0.2-1.3-0.4-2.7-0.6-4c1.4-0.2,2.7-0.4,4.1-0.5c0.3,2.5,0.6,4.9,0.9,7.4
					C218.3,165.7,212.6,166.6,207,167.7z"/>
				<path class="st24" d="M242.9,146.8c1,0,2-0.1,2.9-0.1c0.1,2.1,0.1,4.1,0.2,6.2c-1.1,0-2.1,0.1-3.2,0.1c-0.3-2.2-1.3-3.2-3.7-3
					c-2.4,0.1-2.5,0.7-2.5,1.2c0,0.3,0.2,0.6,2.1,1c1.6,0.3,3.4,0.7,4.9,1.2c2.2,0.7,4.1,2.2,4.1,5c0,3.5-2.6,5.5-7.3,5.7
					c-2.6,0.1-4.1-0.6-5-1.3c0,0.4,0.1,0.8,0.1,1.2c-1.1,0.1-2.2,0.2-3.3,0.3c-0.2-2.5-0.4-5-0.7-7.5c1-0.1,2.1-0.2,3.1-0.2
					c0.5,3,1.8,4.5,4.9,4.3c2.2-0.1,2.7-0.8,2.7-1.6c0-0.4-0.2-1.1-2.9-1.7c-1.1-0.3-2.2-0.5-3.6-0.8c-3-0.6-4.5-2.3-4.7-4.6
					c-0.3-3.1,2.6-5.1,6.8-5.4c2.5-0.1,4.1,0.6,5,1.6C242.9,147.8,242.9,147.3,242.9,146.8z"/>
				<path class="st24" d="M268.9,150.7c-0.2,2.4-0.4,4.8-0.5,7.2c-0.3,3.5-3,6.1-7.6,5.9c-4.6-0.2-8-2.4-8-6.5c0-2.4,0-4.8,0-7.3
					c-0.8,0-1.6,0-2.4,0c0-1.2,0-2.3,0-3.5c3.4,0,6.9,0,10.3,0.2c0,1.2-0.1,2.3-0.1,3.5c-0.8,0-1.6-0.1-2.5-0.1
					c-0.1,2.3-0.1,4.6-0.2,6.9c-0.1,2.7,1.2,3.4,3.2,3.4c1.9,0.1,3.2-0.8,3.3-3c0.1-2.4,0.3-4.7,0.4-7.1c-0.8,0-1.6-0.1-2.4-0.1
					c0.1-1.2,0.1-2.3,0.2-3.5c3,0.1,6,0.3,9,0.6c-0.1,1.1-0.2,2.3-0.3,3.4C270.5,150.8,269.7,150.8,268.9,150.7z"/>
				<path class="st24" d="M286.8,158.9c2-2.9,4-5.8,6-8.7c2.9,0.5,5.7,1,8.6,1.6c-0.2,1.1-0.5,2.3-0.7,3.4c-0.9-0.2-1.7-0.4-2.6-0.5
					c-0.6,3.2-1.3,6.4-1.9,9.6c0.8,0.2,1.7,0.3,2.5,0.5c-0.2,1.1-0.5,2.2-0.7,3.4c-3.2-0.7-6.5-1.3-9.7-1.8c0.2-1.1,0.4-2.3,0.6-3.4
					c0.8,0.1,1.6,0.3,2.4,0.4c0.3-1.8,0.6-3.6,1-5.4c-2,2.7-3.9,5.4-5.8,8.1c-0.9-0.1-1.8-0.3-2.8-0.4c-1-3.2-2.1-6.3-3.2-9.5
					c-0.2,1.8-0.5,3.7-0.7,5.5c0.8,0.1,1.6,0.2,2.3,0.3c-0.2,1.1-0.3,2.3-0.5,3.4c-2.8-0.4-5.7-0.7-8.5-1c0.1-1.1,0.2-2.3,0.3-3.4
					c0.8,0.1,1.6,0.2,2.5,0.3c0.4-3.2,0.7-6.5,1.1-9.7c-0.9-0.1-1.7-0.2-2.6-0.3c0.1-1.1,0.2-2.3,0.3-3.4c2.9,0.3,5.9,0.6,8.8,1
					C284.7,152.1,285.8,155.5,286.8,158.9z"/>
				<path class="st24" d="M315.3,165.1c2.3-2.7,4.7-5.3,7.1-7.9c2.8,0.9,5.6,1.8,8.3,2.7c-0.4,1.1-0.8,2.2-1.1,3.3
					c-0.8-0.3-1.7-0.6-2.5-0.9c-1,3.1-2.1,6.2-3.1,9.2c0.8,0.3,1.6,0.6,2.4,0.8c-0.4,1.1-0.8,2.2-1.1,3.2c-3.1-1.1-6.3-2.1-9.4-3.1
					c0.3-1.1,0.7-2.2,1-3.3c0.8,0.2,1.5,0.5,2.3,0.7c0.5-1.7,1.1-3.5,1.6-5.2c-2.3,2.4-4.6,4.8-6.8,7.3c-0.9-0.3-1.8-0.5-2.7-0.8
					c-0.6-3.3-1.3-6.6-2-9.8c-0.5,1.8-0.9,3.6-1.4,5.4c0.8,0.2,1.5,0.4,2.3,0.6c-0.3,1.1-0.6,2.2-0.9,3.3c-2.8-0.7-5.6-1.4-8.3-2.1
					c0.3-1.1,0.5-2.2,0.8-3.3c0.8,0.2,1.6,0.4,2.4,0.6c0.8-3.2,1.5-6.3,2.3-9.5c-0.8-0.2-1.7-0.4-2.5-0.6c0.3-1.1,0.5-2.2,0.8-3.4
					c2.9,0.7,5.8,1.4,8.7,2.1C314,158.1,314.7,161.6,315.3,165.1z"/>
				<path class="st24" d="M328.1,176.7c0.4-1.1,0.8-2.1,1.2-3.2c0.8,0.3,1.6,0.6,2.3,0.9c1.2-3,2.3-6.1,3.5-9.1
					c-0.8-0.3-1.6-0.6-2.4-0.9c0.4-1.1,0.8-2.2,1.2-3.2c5.8,2.1,11.5,4.5,17.2,7c-1,2.1-2,4.3-3,6.4c-1.3-0.6-2.6-1.2-3.9-1.7
					c0.5-1.1,1-2.2,1.5-3.3c-1.8-0.8-3.7-1.6-5.5-2.3c-0.4,1-0.8,2-1.2,2.9c0.4,0.2,0.8,0.3,1.2,0.5c0.3-0.6,0.5-1.3,0.8-1.9
					c1.1,0.5,2.3,0.9,3.4,1.4c-1,2.2-1.9,4.5-2.9,6.7c-1.1-0.5-2.2-0.9-3.3-1.4c0.3-0.6,0.5-1.3,0.8-1.9c-0.4-0.2-0.8-0.3-1.2-0.5
					c-0.4,1-0.9,2.1-1.3,3.1c1.9,0.8,3.7,1.5,5.6,2.3c0.5-1.2,1.1-2.5,1.6-3.7c1.3,0.6,2.6,1.1,3.9,1.7c-1,2.3-2.1,4.5-3.1,6.8
					C339,180.9,333.6,178.7,328.1,176.7z"/>
				<path class="st24" d="M360.4,191.9c-2.4-1.4-3.4-3.9-2.3-6.9c0.6-1.6,0.1-2.1-0.5-2.4c-0.2-0.1-0.5-0.2-0.7-0.4
					c-0.5,0.9-1,1.9-1.5,2.8c0.7,0.4,1.4,0.7,2,1.1c-0.5,1-1.1,2-1.6,3c-2.9-1.5-5.8-3-8.8-4.4c0.5-1,1-2.1,1.5-3.1
					c0.7,0.4,1.5,0.7,2.2,1.1c1.4-2.9,2.9-5.8,4.3-8.8c-0.8-0.4-1.6-0.8-2.3-1.1c0.5-1,1-2.1,1.5-3.1c3.1,1.5,6.3,3.1,9.3,4.7
					c3.3,1.8,6.4,4.7,4.5,8c-1,1.7-3.3,1.9-5.4,1.3c0.9,0.9,0.8,1.9,0.5,3c-0.8,2.3-0.7,2.7-0.3,2.9c0.4,0.2,0.7-0.2,1-0.8
					c0.2-0.3,0.4-0.8,0.4-1.3c0.8,0.4,1.7,0.7,2.5,1.1c-0.2,0.8-0.4,1.4-0.8,2.2C365,192.6,363.1,193.4,360.4,191.9z M361.4,177.1
					c-0.5-0.2-0.9-0.5-1.4-0.7c-0.5,1-1,1.9-1.5,2.9c0.4,0.2,0.7,0.4,1.1,0.6c2.1,1.1,2.8,0.7,3.3-0.1
					C363.3,178.9,363.2,178,361.4,177.1z"/>
				<path class="st24" d="M392.6,192.6c0.8,0.6,1.7,1.2,2.5,1.9c-1.5,2-3,4-4.5,6c-0.9-0.7-1.9-1.4-2.8-2.1c1.7-3.1,0.9-4.9-1.3-6.4
					c-1.6-1.1-4.1-1.3-6.2,1.8c-2.3,3.4-1.8,5.7,0.4,7.2c2.1,1.5,4.4,1.2,6.5-1.2c0.8,0.8,1.6,1.6,2.4,2.5c-2.4,3.1-6.7,4.2-11,1.2
					c-4.5-3.2-6.1-8-3.1-12.7c2.7-4.3,8.4-4.8,12.9-1.7c2.3,1.6,3.1,3.3,3.3,4.9C391.9,193.5,392.2,193,392.6,192.6z"/>
				<path class="st24" d="M395.2,215.9c0.7-0.9,1.5-1.7,2.2-2.6c0.5,0.5,1.1,0.9,1.6,1.4c0.1-0.3,0.2-0.6,0.3-0.8
					c-1.3-1.2-2.7-2.3-4.1-3.4c-0.3,0.1-0.5,0.3-0.8,0.4c0.5,0.4,0.9,0.8,1.4,1.2c-0.7,0.9-1.5,1.8-2.2,2.6
					c-2.1-1.7-4.2-3.5-6.3-5.1c0.7-0.9,1.4-1.8,2.1-2.7c0.6,0.5,1.3,1,1.9,1.5c4.2-2.3,8.4-4.5,12.7-6.7c1.3,1.1,2.6,2.2,3.8,3.3
					c-1.4,4.6-2.9,9.2-4.5,13.7c0.6,0.6,1.2,1.1,1.8,1.7c-0.8,0.8-1.6,1.7-2.3,2.5C400.3,220.3,397.7,218.1,395.2,215.9z M402,206.5
					c-1.2,0.7-2.5,1.4-3.7,2c0.8,0.6,1.5,1.3,2.2,1.9C401,209.1,401.5,207.8,402,206.5z"/>
				<path class="st24" d="M419.5,229.6c3.4-1,6.9-1.9,10.4-2.8c2.1,2.4,4.1,4.8,6.1,7.2c-0.9,0.7-1.8,1.5-2.7,2.2
					c-0.6-0.8-1.2-1.5-1.8-2.2c-2.5,2.1-5,4.2-7.5,6.3c0.6,0.7,1.2,1.4,1.8,2.2c-0.9,0.7-1.8,1.4-2.7,2.2c-2.3-2.8-4.6-5.5-6.9-8.2
					c0.8-0.8,1.7-1.5,2.5-2.3c0.6,0.6,1.2,1.3,1.7,1.9c1.4-1.2,2.7-2.4,4.1-3.6c-3.3,0.8-6.5,1.6-9.8,2.5c-0.7-0.7-1.3-1.5-2-2.2
					c1.1-3.2,2.2-6.4,3.2-9.7c-1.3,1.3-2.6,2.6-4,3.9c0.6,0.6,1.2,1.2,1.8,1.8c-0.8,0.8-1.6,1.6-2.5,2.4c-2.1-2.2-4.3-4.4-6.4-6.5
					c0.8-0.8,1.6-1.7,2.4-2.5c0.6,0.6,1.3,1.2,1.9,1.8c2.3-2.3,4.6-4.6,6.8-7c-0.7-0.6-1.3-1.3-2-1.9c0.8-0.8,1.6-1.7,2.4-2.5
					c2.3,2.2,4.5,4.4,6.7,6.7C421.9,222.8,420.8,226.2,419.5,229.6z"/>
				<path class="st24" d="M435,250.2c-0.7,0.5-1.4,1-2.1,1.5c0.6,0.8,1.2,1.6,1.7,2.4c-0.9,0.7-1.9,1.3-2.8,2c-2.2-3-4.4-6-6.7-8.9
					c0.9-0.7,1.8-1.4,2.7-2.1c0.6,0.7,1.1,1.4,1.7,2.2c2.6-2,5.1-4,7.7-6c-0.6-0.8-1.2-1.5-1.8-2.3c0.9-0.7,1.8-1.4,2.7-2.1
					c2.3,2.9,4.6,5.9,6.7,9c2.1,2.9,4.4,7.8,0.8,10.2c-3.3,2.1-7.3-1-9.3-3.9C436,251.5,435.5,250.8,435,250.2z M440.8,245.9
					c-1,0.7-2,1.5-3,2.2c0.2,0.3,0.8,1.1,0.9,1.2c1.5,2,2.5,2.1,3.5,1.4c1-0.7,0.8-1.8-0.2-3.2C441.6,247,441.2,246.5,440.8,245.9z"
					/>
			</g>
		</g>
		<g>
			<defs>
				<polygon id="SVGID_3_" points="10,250.5 250.5,409.6 490,250.5 250.5,90.4 				"/>
			</defs>
			<clipPath id="SVGID_2_">
				<use xlink:href="#SVGID_3_"  style="overflow:visible;"/>
			</clipPath>
			<g class="st5">
				<path class="st26" d="M110,327.5c0,0,15.8,18.3,37.4,0.3c0,0,17.9,19.7,37.5,0.3c0,0,15.9,18.3,37.5,0.3c0,0,18,19.7,37.5,0.2
					c0,0,15.9,18.2,37.5,0.2c0,0,17.9,19.7,37.5,0.3c0,0,15.9,18.3,37.5,0.3c0,0,17.8,19.8,37.4,0.3"/>
				<path class="st26" d="M63.4,347.9c0,0,15.8,18.3,37.4,0.3c0,0,17.9,19.7,37.5,0.3c0,0,15.9,18.3,37.5,0.3c0,0,18,19.7,37.5,0.2
					c0,0,15.9,18.2,37.5,0.2c0,0,17.9,19.7,37.5,0.3c0,0,15.9,18.3,37.5,0.3c0,0,17.8,19.8,37.4,0.3"/>
				<path class="st26" d="M105.9,368.4c0,0,15.8,18.3,37.4,0.3c0,0,17.9,19.7,37.5,0.3c0,0,15.9,18.3,37.5,0.3c0,0,18,19.7,37.5,0.2
					c0,0,15.9,18.2,37.5,0.2c0,0,17.9,19.7,37.5,0.3c0,0,15.9,18.3,37.5,0.3c0,0,17.8,19.8,37.4,0.3"/>
				<line class="st26" x1="37.1" y1="282.6" x2="467.6" y2="282.5"/>
				<path class="st26" d="M30.6,388.9c0,0,15.8,18.3,37.4,0.3c0,0,17.9,19.7,37.5,0.3c0,0,15.9,18.3,37.5,0.3c0,0,18,19.7,37.5,0.2
					c0,0,15.9,18.2,37.5,0.2c0,0,17.9,19.7,37.5,0.3c0,0,15.9,18.3,37.5,0.3c0,0,17.8,19.8,37.4,0.3"/>
				<polygon class="st27" points="160.6,219.8 117.3,294.8 203.8,294.8 				"/>
				<polygon class="st28" points="160.6,257.7 139.4,294.4 181.8,294.4 				"/>
				<polyline class="st29" points="160.8,257.3 134.8,279.4 139.5,294.1 				"/>
				<polygon class="st30" points="308.4,222 314.8,222 301.1,198.2 287.3,222 293.9,222 278.3,248.1 285.1,247.8 264.1,283.7 
					336.4,283.7 315.6,247.7 323,248.1 				"/>
				<polygon class="st30" points="362,233.1 368.5,233.1 354.7,209.2 341,233.1 347.5,233.1 331.9,259.1 338.7,258.9 317.8,294.8 
					390,294.8 369.2,258.8 376.6,259.1 				"/>
				<polygon class="st30" points="258.5,233.1 265,233.1 251.2,209.2 237.5,233.1 244.1,233.1 228.4,259.1 235.3,258.9 214.3,294.8 
					286.5,294.8 265.7,258.8 273.2,259.1 				"/>
				<path class="st26" d="M86.6,307c0,0,15.8,18.3,37.4,0.3c0,0,17.9,19.7,37.5,0.3c0,0,15.9,18.3,37.5,0.3c0,0,18,19.7,37.5,0.2
					c0,0,15.9,18.2,37.5,0.2c0,0,17.9,19.7,37.5,0.3c0,0,15.9,18.3,37.5,0.3c0,0,18,18.8,37.6-0.7c0,0,16,17.3,37.6-0.7
					c0,0,17.9,19.7,37.5,0.3c0,0,15.9,18.3,37.5,0.3c0,0,18,19.7,37.5,0.2c0,0,15.9,18.2,37.5,0.2c0,0,17.9,19.7,37.5,0.3
					c0,0,15.9,18.3,37.5,0.3c0,0,17.8,19.8,37.4,0.3"/>
			</g>
		</g>
		<g>
			<polygon class="st31" points="397.9,364.3 343,364.3 343,398.1 397.9,398.1 382.8,380.1 			"/>
			<polygon class="st31" points="102.1,387.5 157,387.5 157,353.7 102.1,353.7 117.2,371.7 			"/>
			<path class="st31" d="M138.7,359.1c0,0,4.6-4.2,18.3-5.3"/>
			<path class="st31" d="M360.9,392.6c0,0-6.8,4.5-17.6,5.1"/>
			<g>
				<g>
					<g>
						<path class="st18" d="M360.8,391.9c-74-43.1-147.9,43.7-221.9,0.6c0-10.9,0-21.8,0-32.7c74,43.1,147.9-43.7,221.9-0.6
							C360.8,370.1,360.8,381,360.8,391.9z"/>
						<path class="st33" d="M360.8,391.9c-74-43.1-147.9,43.7-221.9,0.6c0-10.9,0-21.8,0-32.7c74,43.1,147.9-43.7,221.9-0.6
							C360.8,370.1,360.8,381,360.8,391.9z"/>
					</g>
					<g>
						<path class="st34" d="M172.6,397.6c0.2,0,0.4,0.1,0.6,0.1c-0.2,1.7,1,3.9,3.3,4.1c3.1,0.3,4.1-3.1,4.6-6.3
							c0.6-4.1,1.3-8.2,1.9-12.3c1.5,0,3,0,4.5,0c0,0.2-0.1,0.4-0.1,0.7c-1.3,0-2.6,0-3.9,0c-0.6,3.9-1.2,7.8-1.8,11.8
							c-0.5,3.4-1.7,7.2-5.2,6.9C173.7,402.3,172.4,399.6,172.6,397.6z M179.7,383.1c1,0.1,2,0.1,2.9,0.1c-0.6,4.1-1.2,8.2-1.9,12.2
							c-0.5,3.2-1.4,6.3-4.3,6.1c-2.1-0.2-3.2-2.2-3-3.7c0.2,0,0.4,0.1,0.6,0.1c-0.1,1.2,0.7,2.7,2.5,2.9c2.4,0.2,3.3-2.4,3.7-5.6
							c0.6-3.8,1.2-7.6,1.8-11.4c-0.8,0-1.6-0.1-2.4-0.1C179.6,383.6,179.7,383.3,179.7,383.1z M190.9,378.4c0.1-1.7-1-3.7-3.3-3.7
							c-3.1,0-4.1,3.3-4.6,6.6c-0.1,0.5-0.2,1-0.2,1.5c-1,0-2-0.1-3-0.1c0-0.2,0.1-0.4,0.1-0.7c0.8,0,1.6,0.1,2.4,0.1
							c0-0.3,0.1-0.6,0.1-1c0.5-3.4,1.6-7.1,5.2-7.2c2.8-0.1,4.1,2.3,3.9,4.4C191.3,378.5,191.1,378.5,190.9,378.4z M187.5,382.9
							c-1.5,0-3,0-4.5,0c0.1-0.5,0.2-1,0.2-1.4c0.5-3.3,1.4-6.3,4.3-6.3c2.2,0,3.2,1.8,3,3.3c-0.2,0-0.4,0-0.6,0
							c0.1-1.2-0.7-2.6-2.5-2.6c-2.4,0-3.3,2.7-3.7,5.8c0,0.2-0.1,0.4-0.1,0.7c1.3,0,2.6,0,3.9,0
							C187.5,382.5,187.5,382.7,187.5,382.9z"/>
						<path class="st34" d="M187.2,383.3c1,0,2,0,3-0.1c-0.3,2.2-0.7,4.3-1,6.5c-0.6,3.8,1.3,5.2,3,5.1c1.6-0.1,3.4-1.3,4.7-3.1
							c-0.1,0.8-0.3,1.7-0.4,2.5c1.1-0.1,2.2-0.2,3.3-0.3c0,0.2-0.1,0.4-0.1,0.7c-1.3,0.1-2.6,0.3-3.8,0.4c0.1-0.5,0.1-0.9,0.2-1.4
							c-1.2,1.1-2.5,1.9-3.9,1.9c-2,0.1-4.3-1.5-3.6-5.8c0.3-1.9,0.6-3.8,0.9-5.7c-0.8,0-1.6,0-2.4,0.1
							C187.1,383.7,187.2,383.5,187.2,383.3z M187.4,382.3c1.3,0,2.6-0.1,3.8-0.1c-0.4,2.6-0.8,5.1-1.1,7.7c-0.5,3,0.8,4,2.2,3.9
							c1.4-0.1,3-1.3,4.3-3c0.4-2.5,0.7-4.9,1.1-7.4c-0.8,0.1-1.6,0.2-2.4,0.2c0-0.2,0.1-0.4,0.1-0.7c1-0.1,2-0.2,3-0.3
							c-0.4,2.8-0.9,5.6-1.3,8.4c-1.4,1.9-3.1,3.3-4.8,3.4c-1.7,0.1-3.3-1.2-2.8-4.7c0.3-2.3,0.7-4.6,1-6.9c-1.1,0-2.2,0.1-3.2,0.1
							C187.3,382.7,187.3,382.5,187.4,382.3z M199.8,393.4c-1,0.1-2,0.2-3,0.3c0.6-3.8,1.2-7.7,1.8-11.6c-1.1,0.1-2.2,0.2-3.3,0.3
							c0-0.2,0.1-0.4,0.1-0.7c1.3-0.1,2.6-0.2,3.9-0.4c-0.6,3.9-1.2,7.7-1.7,11.6c0.8-0.1,1.6-0.2,2.4-0.3
							C199.9,393,199.9,393.2,199.8,393.4z"/>
						<path class="st34" d="M205.8,393c0,0.2-0.1,0.5-0.1,0.7c-2.1,0.3-4.1,0.6-6.2,0.8c0-0.2,0.1-0.4,0.1-0.7
							C201.6,393.6,203.7,393.3,205.8,393z M201.2,382.9c0-0.2,0.1-0.5,0.1-0.7c1-0.1,2-0.3,3-0.4c-0.6,3.8-1.1,7.5-1.7,11.3
							c-1,0.1-1.9,0.3-2.9,0.4c0-0.2,0.1-0.4,0.1-0.7c0.8-0.1,1.6-0.2,2.4-0.3c0.5-3.3,1-6.6,1.5-9.9
							C202.8,382.7,202,382.8,201.2,382.9z M213.9,391.1c-1,0.2-2,0.4-3,0.6c0.3-2.2,0.7-4.4,1-6.6c0.6-3.9-1.3-4.9-3-4.6
							c-1.7,0.3-3.4,1.7-4.7,3.5c0.1-0.8,0.3-1.7,0.4-2.5c-1.1,0.2-2.2,0.3-3.3,0.5c0-0.2,0.1-0.5,0.1-0.7c1.3-0.2,2.6-0.3,3.8-0.5
							c-0.1,0.5-0.1,1-0.2,1.4c1.2-1.2,2.5-2.1,3.9-2.3c2-0.4,4.3,0.9,3.6,5.3c-0.3,2-0.6,3.9-0.9,5.9c0.8-0.2,1.6-0.3,2.4-0.5
							C214,390.7,214,390.9,213.9,391.1z M210.6,392.1c1.1-0.2,2.2-0.4,3.3-0.6c0,0.2-0.1,0.5-0.1,0.7c-1.3,0.3-2.6,0.5-3.8,0.7
							c0.4-2.6,0.8-5.2,1.1-7.8c0.4-3-0.8-3.9-2.2-3.6c-1.5,0.3-3,1.6-4.3,3.4c-0.4,2.5-0.7,5-1.1,7.4c0.8-0.1,1.6-0.2,2.4-0.4
							c0,0.2-0.1,0.5-0.1,0.7c-1,0.2-2,0.3-3,0.4c0.4-2.8,0.8-5.6,1.3-8.4c1.4-2,3.1-3.5,4.8-3.8c1.7-0.3,3.3,0.7,2.8,4.3
							C211.3,387.4,211,389.8,210.6,392.1z"/>
						<path class="st34" d="M224.3,376.7c0.2,0,0.4-0.1,0.6-0.1c-0.1,1-0.3,1.9-0.4,2.9c-0.5-1.3-2.2-1.8-3.7-1.5
							c-3,0.7-5.8,4.2-5.8,7.8c0,3.1,2.1,5.2,5,4.6c1.3-0.3,2.9-1.2,4.4-2.9c0.1,0.1,0.2,0.3,0.3,0.4c-1.6,1.8-3.4,2.8-4.8,3.1
							c-3.3,0.8-5.6-1.6-5.6-5.1c0-4,2.9-7.8,6.3-8.6c1.2-0.3,2.5-0.1,3.4,0.5C224.2,377.5,224.2,377.1,224.3,376.7z M223.4,383
							c0.1-0.8,0.2-1.7,0.4-2.5c-0.1-1.2-1.5-1.8-3-1.5c-2.6,0.6-4.9,3.6-4.9,6.7c0,2.6,1.7,4.3,4.1,3.7c1.1-0.3,2.5-1,3.9-2.5
							c0.1,0.1,0.2,0.3,0.3,0.4c-1.5,1.6-3,2.5-4.3,2.8c-2.8,0.7-4.7-1.3-4.7-4.3c0-3.5,2.5-6.8,5.5-7.4c1.8-0.4,3.5,0.3,3.6,2
							c-0.1,0.8-0.2,1.6-0.4,2.4C223.8,382.9,223.6,382.9,223.4,383z M224.3,382.8c0.1-0.8,0.2-1.6,0.4-2.4c0.2-1.3,0.4-2.5,0.5-3.8
							c0.2-0.1,0.4-0.1,0.6-0.2c-0.3,2.1-0.6,4.2-0.9,6.2C224.7,382.7,224.5,382.7,224.3,382.8z"/>
						<path class="st34" d="M232.3,374.4c3.1-0.8,5.4,1.3,5.4,4.8c0,4-2.9,8-6.3,9c-3.1,0.8-5.4-1.4-5.4-4.9
							C226,379.3,228.9,375.3,232.3,374.4z M231.4,387.5c3-0.8,5.7-4.6,5.7-8.1c0-3.1-2.1-5.1-4.8-4.3c-3,0.8-5.8,4.5-5.8,8.1
							C226.5,386.2,228.7,388.3,231.4,387.5z M232.3,375.4c2.6-0.7,4.5,1.1,4.5,4.1c0,3.4-2.5,6.9-5.4,7.7c-2.6,0.7-4.6-1.1-4.6-4.1
							C226.8,379.6,229.4,376.2,232.3,375.4z M231.4,386.5c2.6-0.7,4.9-3.9,4.9-6.9c0-2.6-1.7-4.2-4-3.6c-2.6,0.7-4.9,3.8-4.9,6.8
							C227.4,385.5,229.1,387.1,231.4,386.5z"/>
						<path class="st34" d="M243.5,383.8c0,0.2-0.1,0.5-0.1,0.7c-2.1,0.6-4.1,1.2-6.2,1.8c0-0.2,0.1-0.5,0.1-0.7
							C239.4,385,241.4,384.4,243.5,383.8z M238.9,374.5c0-0.2,0.1-0.5,0.1-0.7c1-0.3,2-0.6,3-0.9c-0.6,3.8-1.1,7.7-1.7,11.5
							c-1,0.3-1.9,0.6-2.9,0.8c0-0.2,0.1-0.5,0.1-0.7c0.8-0.2,1.6-0.5,2.4-0.7c0.5-3.4,1-6.8,1.5-10.1
							C240.5,374,239.7,374.2,238.9,374.5z M251.7,381.1c-1,0.3-2,0.6-3,0.9c0.3-2.2,0.7-4.5,1-6.7c0.6-3.9-1.3-4.8-3-4.3
							c-1.7,0.5-3.4,2.1-4.7,4.1c0.1-0.9,0.3-1.7,0.4-2.6c-1.1,0.3-2.2,0.6-3.3,0.9c0-0.2,0.1-0.5,0.1-0.7c1.3-0.4,2.6-0.7,3.8-1.1
							c-0.1,0.5-0.1,1-0.2,1.5c1.2-1.4,2.5-2.4,3.9-2.8c2-0.6,4.3,0.4,3.6,4.9c-0.3,2-0.6,4-0.9,5.9c0.8-0.2,1.6-0.5,2.4-0.7
							C251.7,380.6,251.7,380.9,251.7,381.1z M248.4,382.4c1.1-0.3,2.2-0.6,3.3-1c0,0.2-0.1,0.5-0.1,0.7c-1.3,0.4-2.6,0.8-3.8,1.1
							c0.4-2.7,0.8-5.3,1.1-8c0.4-3.1-0.8-3.8-2.2-3.4c-1.5,0.4-3,1.9-4.3,3.9c-0.4,2.5-0.7,5.1-1.1,7.6c0.8-0.2,1.6-0.5,2.4-0.7
							c0,0.2-0.1,0.5-0.1,0.7c-1,0.3-2,0.6-3,0.9c0.4-2.9,0.8-5.8,1.3-8.6c1.4-2.2,3.1-3.9,4.8-4.4c1.7-0.5,3.3,0.3,2.8,4
							C249,377.6,248.7,380,248.4,382.4z"/>
						<path class="st34" d="M245.3,387.1c0.2,0,0.4-0.1,0.6-0.1c-0.2,1.8,1,3.5,3.3,2.8c3.1-0.9,4.1-4.5,4.6-8
							c0.6-4.3,1.3-8.6,1.9-12.9c1.5-0.4,3-0.9,4.5-1.3c0,0.2-0.1,0.5-0.1,0.7c-1.3,0.4-2.6,0.7-3.9,1.1c-0.6,4.1-1.2,8.2-1.8,12.3
							c-0.5,3.5-1.7,7.7-5.2,8.7C246.5,391.3,245.1,389.2,245.3,387.1z M252.4,369.8c1-0.3,2-0.6,2.9-0.9c-0.6,4.3-1.2,8.6-1.9,12.9
							c-0.5,3.4-1.4,6.8-4.3,7.6c-2.1,0.6-3.2-0.9-3-2.5c0.2,0,0.4-0.1,0.6-0.1c-0.1,1.2,0.7,2.4,2.5,1.9c2.4-0.7,3.3-3.6,3.7-6.9
							c0.6-4,1.2-8,1.8-12c-0.8,0.2-1.6,0.5-2.4,0.7C252.4,370.3,252.4,370.1,252.4,369.8z M263.6,361.9c0.1-1.8-1-3.5-3.3-2.8
							c-3.1,0.9-4.1,4.5-4.6,8c-0.1,0.5-0.2,1-0.2,1.6c-1,0.3-2,0.6-3,0.9c0-0.2,0.1-0.5,0.1-0.7c0.8-0.2,1.6-0.5,2.4-0.7
							c0-0.3,0.1-0.7,0.1-1c0.5-3.5,1.6-7.7,5.2-8.7c2.8-0.8,4.1,1.3,3.9,3.4C264,361.8,263.8,361.8,263.6,361.9z M260.2,367.2
							c-1.5,0.4-3,0.9-4.5,1.3c0.1-0.5,0.2-1,0.2-1.5c0.5-3.4,1.4-6.8,4.3-7.6c2.2-0.6,3.2,1,3,2.5c-0.2,0-0.4,0.1-0.6,0.1
							c0.1-1.2-0.7-2.5-2.5-1.9c-2.4,0.7-3.3,3.6-3.7,6.9c0,0.2-0.1,0.5-0.1,0.7c1.3-0.4,2.6-0.8,3.9-1.1
							C260.3,366.8,260.3,367,260.2,367.2z"/>
						<path class="st34" d="M269.1,375.5c-1.1,1.3-2.6,2.5-4.4,3c-3.4,1-5.6-1.2-5.6-4.7c0-4,3-8.1,6.5-9.1c2.4-0.7,3.9,0.5,3.9,2.7
							c0,3.1-3,5.4-6.3,6.3c-0.9,0.2-1.8,0.4-2.6,0.5c0.3,2.1,1.8,3.2,4.1,2.6c1.5-0.4,2.6-1.4,3.5-2.4c0.1,0.1,0.2,0.3,0.4,0.4
							c-1,1.2-2.3,2.2-3.9,2.7c-2.9,0.8-4.7-1-4.8-3.9c1,0,2.1-0.2,3.2-0.5c3.1-0.9,5.7-3,5.7-5.5c0-1.8-1.2-2.8-3.4-2.2
							c-3.2,0.9-5.9,4.6-5.9,8.2c0,3.1,2,5.1,5.1,4.2c1.7-0.5,3-1.6,4-2.8C268.9,375.2,269,375.4,269.1,375.5z M260,373.3
							c0.1-3.4,2.6-6.7,5.6-7.5c2-0.5,3.1,0.3,3.1,1.9c0,2.3-2.4,4.2-5.4,5.1C262.1,373.1,261,373.3,260,373.3z M260.6,372.6
							c0.8-0.1,1.7-0.2,2.6-0.5c2.8-0.8,4.8-2.5,4.8-4.3c0-1.2-0.9-1.8-2.5-1.4C263.1,367.1,261,369.8,260.6,372.6z"/>
						<path class="st34" d="M269.1,376.5c2.1-0.6,4.1-1.1,6.2-1.6c0,0.2-0.1,0.5-0.1,0.7c-2.1,0.5-4.1,1.1-6.2,1.6
							C269,376.9,269,376.7,269.1,376.5z M270.7,365.3c0-0.2,0.1-0.5,0.1-0.7c1-0.3,2-0.5,3-0.8c-0.6,3.8-1.1,7.6-1.7,11.5
							c-1,0.3-2,0.5-3,0.8c0-0.2,0.1-0.5,0.1-0.7c0.8-0.2,1.6-0.4,2.4-0.6c0.5-3.4,1-6.7,1.5-10.1
							C272.3,364.9,271.5,365.1,270.7,365.3z M279.6,366c0.2-1.3,0.4-2.7,0.6-4c-3-0.6-5.5,2.9-6.6,5.1c0.2-1.2,0.4-2.5,0.5-3.7
							c-1.1,0.3-2.2,0.6-3.3,0.8c0-0.2,0.1-0.5,0.1-0.7c1.3-0.3,2.6-0.7,3.8-1c-0.1,0.7-0.2,1.3-0.3,2c1.5-2.1,3.7-3.9,6.3-3.1
							c-0.2,1.5-0.4,2.9-0.6,4.4C280,365.9,279.8,366,279.6,366z M278.7,366.2c0.2-1.1,0.3-2.2,0.5-3.2c-2.4,0.2-4.4,3.4-5.2,5.1
							c-0.3,2.1-0.6,4.2-0.9,6.3c0.8-0.2,1.6-0.4,2.4-0.6c0,0.2-0.1,0.5-0.1,0.7c-1,0.2-2,0.5-3,0.8c0.4-2.4,0.7-4.8,1.1-7.2
							c0.8-2,3.3-6.1,6.4-5.7c-0.2,1.3-0.4,2.5-0.6,3.8C279.1,366.1,278.9,366.2,278.7,366.2z"/>
						<path class="st34" d="M290.3,370.7c-1.1,1.2-2.6,2.3-4.4,2.7c-3.4,0.7-5.6-1.6-5.6-5.1c0-4,3-7.9,6.5-8.6
							c2.4-0.5,3.9,0.8,3.9,3c0,3.1-3,5.1-6.3,5.8c-0.9,0.2-1.8,0.3-2.6,0.3c0.3,2.1,1.8,3.4,4.1,2.9c1.5-0.3,2.6-1.1,3.5-2.1
							c0.1,0.1,0.2,0.3,0.4,0.4c-1,1.1-2.3,2-3.9,2.4c-2.9,0.6-4.7-1.3-4.8-4.2c1,0,2.1-0.1,3.2-0.3c3.1-0.6,5.7-2.5,5.7-5.1
							c0-1.8-1.2-2.9-3.4-2.5c-3.2,0.6-5.9,4.2-5.9,7.8c0,3.1,2,5.2,5.1,4.6c1.7-0.3,3-1.4,4-2.5C290,370.4,290.1,370.5,290.3,370.7
							z M281.1,367.8c0.1-3.4,2.6-6.5,5.6-7.1c2-0.4,3.1,0.5,3.1,2.2c0,2.3-2.4,4-5.4,4.7C283.2,367.7,282.1,367.8,281.1,367.8z
							 M281.7,367.1c0.8,0,1.7-0.1,2.6-0.3c2.8-0.6,4.8-2.1,4.8-3.9c0-1.2-0.9-1.9-2.5-1.6C284.2,361.8,282.1,364.3,281.7,367.1z"/>
						<path class="st34" d="M296.5,370.6c0,0.2-0.1,0.5-0.1,0.7c-2.1,0.3-4.1,0.6-6.2,1c0-0.2,0.1-0.5,0.1-0.7
							C292.4,371.2,294.4,370.9,296.5,370.6z M291.9,360.6c0-0.2,0.1-0.5,0.1-0.7c1-0.2,2-0.3,3-0.5c-0.6,3.8-1.1,7.5-1.7,11.3
							c-1,0.2-1.9,0.3-2.9,0.5c0-0.2,0.1-0.5,0.1-0.7c0.8-0.1,1.6-0.3,2.4-0.4c0.5-3.3,1-6.6,1.5-9.9
							C293.5,360.3,292.7,360.5,291.9,360.6z M304.7,369.4c-1,0.1-2,0.2-3,0.3c0.3-2.2,0.7-4.4,1-6.5c0.6-3.8-1.3-5.1-3-4.9
							c-1.7,0.2-3.4,1.5-4.7,3.4c0.1-0.8,0.3-1.7,0.4-2.5c-1.1,0.2-2.2,0.3-3.3,0.5c0-0.2,0.1-0.5,0.1-0.7c1.3-0.2,2.6-0.4,3.8-0.6
							c-0.1,0.5-0.1,1-0.2,1.4c1.2-1.2,2.5-2,3.9-2.2c2-0.2,4.3,1.3,3.6,5.6c-0.3,1.9-0.6,3.8-0.9,5.8c0.8-0.1,1.6-0.1,2.4-0.2
							C304.7,368.9,304.7,369.1,304.7,369.4z M301.4,370c1.1-0.1,2.2-0.2,3.3-0.3c0,0.2-0.1,0.4-0.1,0.7c-1.3,0.1-2.6,0.2-3.8,0.4
							c0.4-2.6,0.8-5.2,1.1-7.7c0.4-3-0.8-3.9-2.2-3.8c-1.5,0.2-3,1.4-4.3,3.3c-0.4,2.5-0.7,5-1.1,7.4c0.8-0.1,1.6-0.2,2.4-0.3
							c0,0.2-0.1,0.5-0.1,0.7c-1,0.1-2,0.3-3,0.4c0.4-2.8,0.8-5.6,1.3-8.5c1.4-2,3.1-3.5,4.8-3.7c1.7-0.2,3.3,0.9,2.7,4.5
							C302,365.4,301.7,367.7,301.4,370z"/>
						<path class="st34" d="M315,356.9c0.2,0,0.4,0,0.6,0c-0.1,0.9-0.3,1.8-0.4,2.8c-0.5-1.5-2.2-2.4-3.7-2.3
							c-3,0.1-5.8,3.2-5.8,6.8c0,3.1,2.1,5.5,5,5.4c1.3,0,2.9-0.6,4.4-1.8c0.1,0.2,0.2,0.3,0.3,0.5c-1.6,1.4-3.4,1.9-4.8,2
							c-3.3,0.1-5.6-2.5-5.6-6c0-4,2.9-7.5,6.3-7.6c1.2,0,2.5,0.4,3.4,1.3C314.9,357.6,315,357.3,315,356.9z M314.1,362.9
							c0.1-0.8,0.2-1.6,0.4-2.4c-0.1-1.2-1.5-2.2-3-2.1c-2.6,0.1-4.9,2.7-4.9,5.8c0,2.6,1.7,4.5,4.1,4.5c1.1,0,2.5-0.5,3.9-1.6
							c0.1,0.2,0.2,0.3,0.3,0.5c-1.5,1.3-3,1.8-4.3,1.8c-2.8,0.1-4.7-2.1-4.7-5.1c0-3.5,2.5-6.4,5.5-6.5c1.8,0,3.5,1.1,3.6,2.9
							c-0.1,0.8-0.2,1.6-0.4,2.4C314.5,362.9,314.3,362.9,314.1,362.9z M315,362.9c0.1-0.8,0.2-1.6,0.4-2.3c0.2-1.2,0.4-2.4,0.6-3.6
							c0.2,0,0.4,0,0.6,0c-0.3,2-0.6,4-0.9,6C315.4,362.9,315.2,362.9,315,362.9z"/>
						<path class="st34" d="M326.7,369.1c-1.1,0.8-2.6,1.5-4.4,1.4c-3.4-0.3-5.6-3.1-5.6-6.6c0-4,3-7.2,6.5-6.9
							c2.4,0.2,3.9,2,3.9,4.2c0,3.1-3,4.2-6.3,4c-0.9-0.1-1.8-0.2-2.6-0.4c0.3,2.2,1.8,3.8,4.1,4c1.5,0.1,2.6-0.4,3.5-1.1
							c0.1,0.2,0.2,0.4,0.4,0.6c-1,0.8-2.3,1.4-3.9,1.2c-2.9-0.2-4.7-2.6-4.8-5.5c1,0.3,2.1,0.5,3.2,0.6c3.1,0.2,5.7-0.8,5.7-3.4
							c0-1.8-1.2-3.3-3.4-3.4c-3.2-0.3-5.9,2.6-5.9,6.2c0,3.1,2,5.7,5.1,5.9c1.7,0.1,3-0.5,4-1.3C326.5,368.8,326.6,369,326.7,369.1
							z M317.6,363.6c0.1-3.3,2.6-5.9,5.6-5.6c2,0.2,3.1,1.5,3.1,3.1c0,2.3-2.4,3.3-5.4,3.1C319.7,364.1,318.5,363.9,317.6,363.6z
							 M318.2,363.1c0.8,0.2,1.7,0.3,2.6,0.4c2.8,0.2,4.8-0.7,4.8-2.5c0-1.2-0.9-2.2-2.5-2.3C320.7,358.5,318.6,360.5,318.2,363.1z"
							/>
					</g>
				</g>
			</g>
		</g>
	</g>
</g>
</svg>
