<svg id="Layer_1_copy_2" data-name="Layer 1 copy 2" xmlns="http://www.w3.org/2000/svg" viewBox="0 0 112.61 127.62"><defs><style>.cls-1{fill:#fff;}.cls-1,.cls-2{stroke:#ed1c24;stroke-miterlimit:10;stroke-width:1.65px;}.cls-2{fill:#fff200;}</style></defs><title>HP</title><path class="cls-1" d="M55.56,71.62a34.42,34.42,0,0,1-25.23-1.93A35.31,35.31,0,0,1,10.52,38.74Z"/><path class="cls-1" d="M57,71.62a34.42,34.42,0,0,0,25.23-1.93,35.31,35.31,0,0,0,19.81-30.95Z"/><circle class="cls-2" cx="56.3" cy="74.9" r="13.98"/><path class="cls-2" d="M56.3,70.38a14.05,14.05,0,0,1-4.52,4.52,14.05,14.05,0,0,1,4.52,4.52,14.05,14.05,0,0,1,4.52-4.52A14.05,14.05,0,0,1,56.3,70.38Z"/><path class="cls-2" d="M51.78,74.9a13.91,13.91,0,0,0-7.37-2.1,14.09,14.09,0,0,0-2,.14,13.83,13.83,0,0,0,0,3.92,14.09,14.09,0,0,0,2,.14A13.91,13.91,0,0,0,51.78,74.9Z"/><path class="cls-2" d="M56.3,70.38A13.91,13.91,0,0,0,58.4,63a14.09,14.09,0,0,0-.14-2,13.83,13.83,0,0,0-3.92,0,14.09,14.09,0,0,0-.14,2A13.91,13.91,0,0,0,56.3,70.38Z"/><path class="cls-2" d="M56.3,79.42a13.91,13.91,0,0,0-2.1,7.36,14.09,14.09,0,0,0,.14,2,13.83,13.83,0,0,0,3.92,0,14.09,14.09,0,0,0,.14-2A13.91,13.91,0,0,0,56.3,79.42Z"/><path class="cls-2" d="M70.15,72.94a14.09,14.09,0,0,0-2-.14,13.91,13.91,0,0,0-7.37,2.1A13.91,13.91,0,0,0,68.19,77a14.09,14.09,0,0,0,2-.14,13.83,13.83,0,0,0,0-3.92Z"/></svg>