<svg id="Layer_1_copy_2" data-name="Layer 1 copy 2" xmlns="http://www.w3.org/2000/svg" viewBox="0 0 112.61 127.62"><defs><style>.cls-1{fill:#fff200;}.cls-1,.cls-2,.cls-3{stroke:#ed1c24;stroke-miterlimit:10;stroke-width:1.65px;}.cls-2{fill:#fff;}.cls-3{fill:none;}</style></defs><title>HP</title><path class="cls-1" d="M37.07,36.11a5.21,5.21,0,0,1,5.22-5.29A5.29,5.29,0,0,1,46,32.38a5.4,5.4,0,0,1,5-3.54,5.15,5.15,0,0,1,5,3.66,5,5,0,0,1,3.76-1.68A5.22,5.22,0,0,1,65,36.09"/><path class="cls-2" d="M64.85,71.78c6.83-2.38,6.44-10,6.44-10s.14-7.06.14-10.76c0-1.81-1.1-4-3.49-4H65l-.12-4H70a5.28,5.28,0,0,1,5.59,5.26c0,4.88-.22,14.19-.22,14.19S76,73.1,64,75.91Z"/><path class="cls-2" d="M65,36.14H37.08V71s-.65,8.56,8.48,12.89v9.58a5.39,5.39,0,0,0-5.25,5.26H61.77a5.32,5.32,0,0,0-5.25-5.25l0-9.58S65,80.46,65,71,65,36.14,65,36.14Z"/><rect class="cls-1" x="37.07" y="36.11" width="27.92" height="6.88" rx="0.68" ry="0.68"/><path class="cls-3" d="M39.57,62.11v7.46A14,14,0,0,0,46.1,81.4"/></svg>