<svg id="Layer_1_copy_2" data-name="Layer 1 copy 2" xmlns="http://www.w3.org/2000/svg" viewBox="0 0 112.61 127.62"><defs><style>.cls-1,.cls-4{fill:#fff;}.cls-1,.cls-2,.cls-3,.cls-4,.cls-5{stroke:#ed1c24;stroke-miterlimit:10;}.cls-1,.cls-2,.cls-3{stroke-width:1.65px;}.cls-2,.cls-5{fill:#ed1c24;}.cls-3{fill:#fff200;}.cls-4{stroke-width:1.1px;}.cls-5{stroke-width:0.55px;}</style></defs><title>HP</title><path class="cls-1" d="M56.19,28.94a14,14,0,0,1,14.08,14V98.68C58.82,96.5,42.52,85.31,42.43,64.35c-.05-12.49-.11-12-.11-21.54A14,14,0,0,1,56.19,28.94Z"/><path class="cls-2" d="M68.87,38.78c0,4.14-2.22,7.51-4,9.54a30.33,30.33,0,0,0-6.31,10.91,37.36,37.36,0,0,0-1.14,4.59,35.34,35.34,0,0,0,12.89,34V42.92C70.29,39.56,68.87,38.78,68.87,38.78Z"/><path class="cls-3" d="M56.46,34.34a.2.2,0,0,1-.31,0,7,7,0,0,0-12.43,4.43c0,7.1,6,12.93,12.43,12.87s12.77-6,12.71-12.87A7,7,0,0,0,56.46,34.34Z"/><circle class="cls-4" cx="50.43" cy="38.63" r="3.93"/><circle class="cls-4" cx="62.16" cy="38.63" r="3.93"/><polygon class="cls-5" points="56.3 41.91 57.94 41.91 57.12 43.92 56.3 45.94 55.47 43.92 54.65 41.91 56.3 41.91"/></svg>