<svg id="Layer_1_copy_2" data-name="Layer 1 copy 2" xmlns="http://www.w3.org/2000/svg" viewBox="0 0 112.61 127.62"><defs><style>.cls-1{fill:#ffcd05;}.cls-2{fill:#ffd800;}.cls-2,.cls-3{stroke:#ed145b;}.cls-2,.cls-3,.cls-4{stroke-miterlimit:10;stroke-width:1.67px;}.cls-3,.cls-4{fill:#fff;}.cls-4{stroke:#ed185c;}</style></defs><title>HP</title><path class="cls-1" d="M56.3,22.55a8,8,0,0,1-2.55,2.58,8,8,0,0,1,2.55,2.58,8,8,0,0,1,2.55-2.58A8,8,0,0,1,56.3,22.55Z"/><path class="cls-1" d="M51.72,27a8,8,0,0,1-2.55,2.58,8,8,0,0,1,2.55,2.58,8,8,0,0,1,2.55-2.58A8,8,0,0,1,51.72,27Z"/><path class="cls-1" d="M60.89,27a8,8,0,0,1-2.55,2.58,8,8,0,0,1,2.55,2.58,8,8,0,0,1,2.55-2.58A8,8,0,0,1,60.89,27Z"/><path class="cls-2" d="M53.71,104.12a4.07,4.07,0,0,0,5,.18,3.79,3.79,0,0,0,1.57-3.25c0-3.88,0-14.79,0-14.79a1.28,1.28,0,0,0,1.32-1.33,1.21,1.21,0,0,0-1.32-1.33H52.35A1.34,1.34,0,0,0,51,84.93c-.09,1.34,1.32,1.33,1.32,1.33v14.79A3.88,3.88,0,0,0,53.71,104.12Z"/><path class="cls-3" d="M56.23,34a1.32,1.32,0,0,1,1.32,1.33c0,1.28,1.4,48.28,1.4,48.28H53.67S54.91,36,54.91,35.32A1.3,1.3,0,0,1,56.23,34Z"/><path class="cls-4" d="M56.21,102.87a4,4,0,0,1-1.75-3.32V94.41"/></svg>