<svg id="Layer_1_copy_2" data-name="Layer 1 copy 2" xmlns="http://www.w3.org/2000/svg" viewBox="0 0 112.61 127.62"><defs><style>.cls-1,.cls-3{fill:#ed1c24;}.cls-1,.cls-4{stroke:#ed1c24;stroke-miterlimit:10;}.cls-1{stroke-width:1.65px;}.cls-2{fill:#fff200;}.cls-4{fill:none;stroke-width:1.1px;}</style></defs><title>HP</title><path class="cls-1" d="M61.52,63.91a5.24,5.24,0,1,0-10.49,0L51,67.46s.8-5.5,5.31-5.5,5.36,5.5,5.36,5.5Z"/><rect class="cls-1" x="23.1" y="60.37" width="27.92" height="6.88"/><path class="cls-2" d="M38.84,76.43a13.33,13.33,0,0,1-2.36-.21,12.49,12.49,0,0,1-10-10,12.62,12.62,0,0,1,12.39-15,13.35,13.35,0,0,1,2.35.21,12.49,12.49,0,0,1,10,10,12.62,12.62,0,0,1-12.39,15Z"/><path class="cls-3" d="M38.84,52.6h0a12,12,0,0,1,2.11.19,11.24,11.24,0,0,1-2.11,22.27,12,12,0,0,1-2.11-.19A11.24,11.24,0,0,1,38.84,52.6m0-2.75a14,14,0,0,0-2.6,27.73,14.66,14.66,0,0,0,2.6.23,14,14,0,0,0,2.6-27.73,14.66,14.66,0,0,0-2.6-.23Z"/><rect class="cls-1" x="61.59" y="60.37" width="27.92" height="6.88" transform="translate(151.09 127.62) rotate(-180)"/><path class="cls-2" d="M73.77,76.4a12.61,12.61,0,0,1-2.37-25,13.36,13.36,0,0,1,2.38-.22,12.61,12.61,0,0,1,2.38,25,13.36,13.36,0,0,1-2.38.22Z"/><path class="cls-3" d="M73.77,52.57A11.24,11.24,0,0,1,75.9,74.83a12,12,0,0,1-2.13.19,11.24,11.24,0,0,1-2.13-22.27,12,12,0,0,1,2.13-.19m0-2.75a14.66,14.66,0,0,0-2.62.24,14,14,0,0,0,2.62,27.73,14.66,14.66,0,0,0,2.62-.24,14,14,0,0,0-2.62-27.73Z"/><path class="cls-4" d="M38.5,72.76s-7.54-.86-8.62-9.7"/></svg>