<?xml version="1.0" encoding="utf-8"?>
<!-- Generator: Adobe Illustrator 21.0.2, SVG Export Plug-In . SVG Version: 6.00 Build 0)  -->
<svg version="1.1" id="Layer_1" xmlns="http://www.w3.org/2000/svg" xmlns:xlink="http://www.w3.org/1999/xlink" x="0px" y="0px"
	 viewBox="0 0 144 144" style="enable-background:new 0 0 144 144;" xml:space="preserve">
<style type="text/css">
	.st0{fill:#FFFFFF;}
	.st1{font-family:'GrafolitaScript-Medium';}
	.st2{font-size:12px;}
</style>
<g>
	<g>
		<path class="st0" d="M52,102.3c-0.5,0-1.1,0-1.6-0.1c-4.6-0.6-8.5-2.9-10.8-6.3C37,92,36.5,86.9,38,81.1
			c1.6-5.9,6.3-10.8,13.7-14.2c5.5-2.5,10.4-3.3,10.7-3.4c0.1,0,0.1,0,0.2,0c0.3,0,0.5,0.1,0.7,0.3c0.1,0.1,0.1,0.2,0.2,0.3
			c0.7-4.3,1.5-9.3,1.8-12.4c0.2-1.3,0.3-2.6,0.5-3.8c0.6-4.5,1.2-8.4,0-9.9c-1.2-1.6-2.8-2.5-4.7-2.5c-1.9,0-3.5,0.8-3.9,1.1
			c-4,2.7-5.4,8.4-5.4,12.5c0,4.5,2.2,9.4,6.9,9.5c0.5,0,0.9,0.4,1,0.9l0.1,1.2c0,0.5-0.3,0.9-0.8,1c-0.9,0.2-1.8,0.4-3,0.4
			c-6,0-10.7-5.3-10.7-12c0-6.4,3-14.8,9.5-18c3.4-1.7,6.4-2.6,9-2.6c2.9,0,5.2,1.1,7,3.2c2.8,3.4,1.6,11.1,0.5,17.9
			c-0.1,0.9-0.3,1.8-0.4,2.6c-0.8,5.4-1.7,9.8-2.5,14c-0.5,2.3-1,4.7-1.4,7.2c-0.5,2.6-0.9,5.1-1.2,7.2c-1,6.1-1.7,10.6-3.6,14.1
			C59.7,100,56.3,102.3,52,102.3z M62.7,68.6c-0.1,0.1-0.2,0.1-0.3,0.1c-0.2,0-15.9,5-18.5,14.3c-1,3.5-0.5,6.8,1.4,9.3
			c1.5,2,3.8,3.2,5.9,3.2c0.2,0,0.3,0,0.5,0c6.1-0.6,8.3-12.8,9.6-20.1c0.2-1.2,0.4-2.3,0.6-3.2C62.1,71.6,62.4,70.3,62.7,68.6z"/>
		<path d="M63.7,30.5c2.4,0,4.5,0.8,6.2,2.8c2.8,3.5,0.9,13.1-0.1,19.8c-1.2,8.5-2.7,14.1-4,21.2c-1.8,9.9-2.2,16.4-4.7,21
			c-1.5,2.8-4.3,5.9-9.1,5.9c-0.5,0-1,0-1.5-0.1C43,100.2,35.6,94,39,81.4c3.7-13.7,23.5-16.9,23.5-16.9l-0.4,3.2
			c0,0-16.4,5.1-19.2,15c-2.3,8.3,3.4,13.8,8.3,13.8c0.2,0,0.4,0,0.6,0C59.8,95.8,61.6,79,63,72.4c0.5-2.3,2.6-14.7,3.3-20.6
			c0.8-6.8,2.1-12.2,0.3-14.5c-1.7-2.2-3.7-2.9-5.5-2.9c-2.1,0-3.9,0.9-4.4,1.2c-4,2.7-5.8,8.3-5.8,13.3c0,4.9,2.4,10.4,7.9,10.5
			l0.1,1.2c-0.8,0.2-1.7,0.4-2.8,0.4c-5.4,0-9.7-4.7-9.7-11c0-5.6,2.5-13.9,8.9-17.1C58.1,31.5,61.1,30.5,63.7,30.5 M63.7,28.5
			c-2.7,0-5.9,0.9-9.4,2.7c-3.3,1.7-6,4.6-7.8,8.6c-1.4,3.2-2.2,6.9-2.2,10.3c0,7.3,5.2,13,11.7,13c1.3,0,2.3-0.2,3.3-0.5
			c0.9-0.2,1.6-1.1,1.5-2l-0.1-1.2c-0.1-1-0.9-1.9-1.9-1.9c-4.7-0.1-6-5.6-6-8.5c0-3.8,1.3-9.2,4.9-11.6c0.3-0.2,1.7-0.9,3.3-0.9
			c1.6,0,2.9,0.7,3.9,2.1c0.9,1.2,0.3,5.2-0.2,9.2c-0.2,1.2-0.3,2.5-0.5,3.9c-0.3,2.8-1,7-1.6,10.9c0,0-0.1,0-0.1,0
			c-0.1,0-0.2,0-0.3,0c-0.9,0.1-21.2,3.5-25.2,18.3c-2.1,7.7-0.2,12.7,1.7,15.5c2.5,3.7,6.7,6.1,11.5,6.8c0.6,0.1,1.2,0.1,1.8,0.1
			c4.6,0,8.4-2.4,10.9-7c2-3.7,2.8-8.2,3.8-14.4c0.3-2.1,0.7-4.5,1.2-7.2c0.5-2.5,1-4.9,1.4-7.2c0.9-4.2,1.8-8.6,2.6-14
			c0.1-0.8,0.2-1.7,0.4-2.6c1.1-7,2.3-15-0.8-18.7C69.6,29.7,67,28.5,63.7,28.5L63.7,28.5z M51.3,94.6c-1.8,0-3.8-1.1-5.1-2.8
			c-1.7-2.3-2.2-5.3-1.3-8.5c1.2-4.5,5.9-7.9,9.6-10c2.7-1.5,5.4-2.6,6.9-3.2C61.2,71,61.1,71.7,61,72c-0.2,0.9-0.4,2-0.6,3.2
			C59.2,81.8,57,94,51.7,94.6C51.6,94.6,51.4,94.6,51.3,94.6L51.3,94.6z"/>
	</g>
	<g>
		<path class="st0" d="M80.4,91.4c-5.4,0-11.2-4.4-11.2-16.7c0-7.3,2-19.2,5.2-30.3c0.1-0.4,0.3-1,0.4-1.7c1-3.9,2.8-11,4.9-13.7
			c2-2.4,4.2-3.7,6.5-3.7c0.7,0,1.3,0.1,2,0.3c0.1,0,0.1,0,0.2,0.1c4.6,2.6,5.3,10.2,5.3,14.5c0,9.9-5.8,22.1-15.5,25.5
			c-0.4,3.7-0.5,6.4-0.5,8.7c0,8.8,2.5,11.9,4.7,11.9c2.2,0,5.5-2.9,8.4-10.9c0.2-0.6,0.8-1.1,1.5-1.1c0.2,0,0.3,0,0.5,0.1l1,0.3
			c0.4,0.1,0.8,0.4,0.9,0.8c0.2,0.4,0.2,0.8,0.1,1.2C91.3,86.2,86.3,91.4,80.4,91.4z M86.1,35c-0.2,0-0.9,0.1-1.2,0.8
			c-1.3,3.7-2.1,6.3-2.6,8.5c-1,3.9-2.4,10.3-3.3,16.5c4.7-2.6,7.5-8.6,8.6-18.1c0.4-4,0-5.8-0.2-6.6l-0.1-0.2
			C87.1,35.2,86.6,35,86.1,35z"/>
		<path d="M86.3,26.3c0.6,0,1.1,0.1,1.7,0.3c3.8,2.2,4.8,8.5,4.8,13.6c0,9.4-5.6,21.5-15.1,24.6c-0.2,0.1-0.4,0.3-0.4,0.5
			c-0.3,3.2-0.6,6.4-0.6,9.1c0,9.1,2.7,12.9,5.7,12.9c2.6,0,6.2-2.8,9.3-11.5c0.1-0.2,0.3-0.4,0.6-0.4c0.1,0,0.1,0,0.2,0l1,0.3
			c0.3,0.1,0.5,0.4,0.4,0.8c-2.7,7.5-7.2,14-13.4,14c-4.4,0-10.2-3.4-10.2-15.7c0-7.7,2.3-20,5.1-30.1c0.7-2.4,2.8-12.1,5.2-15
			C82.4,27.3,84.4,26.3,86.3,26.3 M78.4,62.1c0.1,0,0.2,0,0.3-0.1c6.3-2.9,8.9-11.1,9.8-19.2c0.5-4.6-0.1-6.4-0.2-7.2
			C88,34.5,87.1,34,86.1,34c-0.9,0-1.8,0.5-2.2,1.5c-1.2,3.5-2.1,6.2-2.7,8.6c-1.1,4.4-2.5,11.2-3.5,17.4
			C77.7,61.8,78,62.1,78.4,62.1 M86.3,24.3L86.3,24.3c-1.8,0-4.6,0.7-7.3,4.1c-2.1,2.6-3.8,8.6-5.1,14.1c-0.2,0.7-0.3,1.3-0.4,1.7
			c-3.2,11.2-5.2,23.2-5.2,30.6c0,13,6.3,17.7,12.2,17.7c6.3,0,11.7-5.4,15.3-15.3c0.2-0.7,0.2-1.4-0.1-2c-0.3-0.6-0.9-1.1-1.5-1.3
			l-1-0.3c-0.2-0.1-0.5-0.1-0.8-0.1c-1.1,0-2.1,0.7-2.4,1.7c-2.8,8.1-6,10.2-7.4,10.2c-1.8,0-3.7-3.4-3.7-10.9c0-2.1,0.1-4.6,0.5-8
			c9.8-3.8,15.6-16.2,15.6-26.2c0-5.5-1-12.7-5.8-15.4c-0.1-0.1-0.2-0.1-0.3-0.2C87.8,24.4,87,24.3,86.3,24.3L86.3,24.3z M80.3,58.6
			c0.9-5.4,2.1-10.6,2.9-14.1c0.5-2.2,1.3-4.7,2.6-8.4c0-0.1,0.1-0.2,0.3-0.2c0.2,0,0.2,0.1,0.2,0.1l0.1,0.2
			c0.2,0.8,0.6,2.4,0.1,6.3C85.9,48.1,84.3,55,80.3,58.6L80.3,58.6z"/>
	</g>
</g>
<text transform="matrix(1 0 0 1 -0.604 -15.5)" class="st1 st2">grafolita script medium</text>
<g>
	<path d="M69.5,22.3c34.7,0,62.8,19,62.8,42.4S104.2,107,69.5,107S6.6,88,6.6,64.6S34.8,22.3,69.5,22.3 M69.5,20.3
		c-17.2,0-33.3,4.5-45.5,12.8C11.5,41.4,4.7,52.6,4.7,64.6s6.8,23.2,19.3,31.6c12.2,8.2,28.4,12.8,45.5,12.8s33.3-4.5,45.5-12.8
		c12.4-8.4,19.3-19.6,19.3-31.6S127.4,41.4,115,33C102.8,24.8,86.6,20.3,69.5,20.3L69.5,20.3z"/>
</g>
</svg>
